sfk_cyclingleg_states
version=1
nRows=8
nColumns=53
inDegrees=yes

# SIMM Motion File Header:
name sfk_cyclingleg_states
datacolumns 53
datarows 8
otherdata 1
range 0.36370130 0.36464611
endheader
time	/jointset/bb/crank_angle/value	/jointset/bb/crank_angle/speed	/jointset/spindle/pedal_angle_r/value	/jointset/spindle/pedal_angle_r/speed	/jointset/ground_pelvis/pelvis_tilt/value	/jointset/ground_pelvis/pelvis_tilt/speed	/jointset/ground_pelvis/pelvis_list/value	/jointset/ground_pelvis/pelvis_list/speed	/jointset/ground_pelvis/pelvis_rotation/value	/jointset/ground_pelvis/pelvis_rotation/speed	/jointset/ground_pelvis/pelvis_tx/value	/jointset/ground_pelvis/pelvis_tx/speed	/jointset/ground_pelvis/pelvis_ty/value	/jointset/ground_pelvis/pelvis_ty/speed	/jointset/ground_pelvis/pelvis_tz/value	/jointset/ground_pelvis/pelvis_tz/speed	/jointset/hip_r/hip_angle_r/value	/jointset/hip_r/hip_angle_r/speed	/jointset/hip_r/hip_adduction_r/value	/jointset/hip_r/hip_adduction_r/speed	/jointset/hip_r/hip_rotation_r/value	/jointset/hip_r/hip_rotation_r/speed	/jointset/knee_r/knee_angle_r/value	/jointset/knee_r/knee_angle_r/speed	/jointset/knee_r/tib_tx_r/value	/jointset/knee_r/tib_tx_r/speed	/jointset/knee_r/tib_ty_r/value	/jointset/knee_r/tib_ty_r/speed	/jointset/tib_pat_r/pat_angle_r/value	/jointset/tib_pat_r/pat_angle_r/speed	/jointset/tib_pat_r/pat_tx_r/value	/jointset/tib_pat_r/pat_tx_r/speed	/jointset/tib_pat_r/pat_ty_r/value	/jointset/tib_pat_r/pat_ty_r/speed	/jointset/ankle_r/ankle_angle_r/value	/jointset/ankle_r/ankle_angle_r/speed	/jointset/subtalar_r/subtalar_angle_r/value	/jointset/subtalar_r/subtalar_angle_r/speed	/jointset/mtp_r/mtp_angle_r/value	/jointset/mtp_r/mtp_angle_r/speed	/forceset/bifemlh_r/activation	/forceset/bifemlh_r/fiber_length	/forceset/bifemsh_r/activation	/forceset/bifemsh_r/fiber_length	/forceset/glut_max2_r/activation	/forceset/glut_max2_r/fiber_length	/forceset/vas_int_r/activation	/forceset/vas_int_r/fiber_length	/forceset/med_gas_r/activation	/forceset/med_gas_r/fiber_length	/forceset/tib_ant_r/activation	/forceset/tib_ant_r/fiber_length
      0.36370130	   -184.76192288	   -480.13863232	    196.97756403	    215.12985171	      0.00000000	     -0.00000000	     -0.00000000	     -0.00000000	      0.00000000	      0.00000000	     -0.00000000	     -0.00000000	      0.00000000	     -0.00000000	     -0.00000000	     -0.00000000	     37.06396516	     77.41958988	      4.36665047	      0.81451950	      1.81292336	    -28.01973837	    -47.85632690	   -292.26991081	      0.00358420	      0.03759660	     -0.47246692	     -0.07831886	     16.97484652	     15.04355559	      0.04626122	     -0.07918376	     -0.02338390	      0.01160430	     23.41454324	    -50.06436273	     -0.00000000	     -0.00000000	     -0.00000000	     -0.00000000	     -0.02138442	      0.12145882	     -0.02138442	      0.17337454	     -0.02138442	      0.12811087	     -0.02138442	      0.11974371	     -0.02138442	      0.15019278	     -0.02138442	      0.11527503
      0.36376290	   -184.79149756	   -480.13863232	    196.99081657	    215.17461595	      0.00000000	     -0.00000000	     -0.00000000	     -0.00000000	      0.00000000	      0.00000000	     -0.00000000	     -0.00000000	      0.00000000	     -0.00000000	     -0.00000000	     -0.00000000	     37.06873475	     77.44689346	      4.36670061	      0.81352915	      1.81119765	    -28.01353441	    -47.87433064	   -292.30405212	      0.00358652	      0.03758280	     -0.47247175	     -0.07834705	     16.97577269	     15.02874003	      0.04625634	     -0.07920460	     -0.02338318	      0.01160349	     23.41146109	    -50.01197314	     -0.00000000	     -0.00000000	     -0.00000000	     -0.00000000	     -0.02139236	      0.12145265	     -0.02139236	      0.17336404	     -0.02139236	      0.12811439	     -0.02139236	      0.11975825	     -0.02139236	      0.15019673	     -0.02139236	      0.11527778
      0.36384824	   -184.83247504	   -480.13863232	    197.00918332	    215.23665907	      0.00000000	     -0.00000000	     -0.00000000	     -0.00000000	      0.00000000	      0.00000000	     -0.00000000	     -0.00000000	      0.00000000	     -0.00000000	     -0.00000000	     -0.00000000	     37.07534607	     77.48470251	      4.36676998	      0.81215563	      1.80880720	    -28.00494636	    -47.89927937	   -292.35127041	      0.00358972	      0.03756362	     -0.47247844	     -0.07838608	     16.97705444	     15.00821354	      0.04624958	     -0.07923346	     -0.02338219	      0.01160237	     23.40719591	    -49.93943001	     -0.00000000	     -0.00000000	     -0.00000000	     -0.00000000	     -0.02140334	      0.12144410	     -0.02140334	      0.17334949	     -0.02140334	      0.12811928	     -0.02140334	      0.11977845	     -0.02140334	      0.15019733	     -0.02140334	      0.11528158
      0.36403468	   -184.92199158	   -480.13863232	    197.04932445	    215.37227320	      0.00000000	     -0.00000000	     -0.00000000	     -0.00000000	      0.00000000	      0.00000000	     -0.00000000	     -0.00000000	      0.00000000	     -0.00000000	     -0.00000000	     -0.00000000	     37.08979993	     77.56721038	      4.36692112	      0.80914980	      1.80358773	    -27.98621750	    -47.95379463	   -292.45407135	      0.00359672	      0.03752145	     -0.47249306	     -0.07847124	     16.97984838	     14.96337852	      0.04623480	     -0.07929641	     -0.02338003	      0.01159991	     23.39790001	    -49.78114211	     -0.00000000	     -0.00000000	     -0.00000000	     -0.00000000	     -0.02142735	      0.12142544	     -0.02142735	      0.17331769	     -0.02142735	      0.12812997	     -0.02142735	      0.11982265	     -0.02142735	      0.15018826	     -0.02142735	      0.11528986
      0.36451160	   -185.15097915	   -480.13863232	    197.15212254	    215.71967294	      0.00000000	     -0.00000000	     -0.00000000	     -0.00000000	      0.00000000	      0.00000000	     -0.00000000	     -0.00000000	      0.00000000	     -0.00000000	     -0.00000000	     -0.00000000	     37.12684349	     77.77773148	      4.36730518	      0.80142780	      1.79025194	    -27.93850780	    -48.09333405	   -292.71487377	      0.00361459	      0.03741200	     -0.47253053	     -0.07868845	     16.98695736	     14.84872765	      0.04619694	     -0.07945697	     -0.02337450	      0.01159362	     23.37425475	    -49.37738432	     -0.00000000	     -0.00000000	     -0.00000000	     -0.00000000	     -0.02148875	      0.12137778	     -0.02148875	      0.17323631	     -0.02148875	      0.12815737	     -0.02148875	      0.11993587	     -0.02148875	      0.15000021	     -0.02148875	      0.11531092
      0.36453081	   -185.16020543	   -480.13863232	    197.15626792	    215.73368505	      0.00000000	     -0.00000000	     -0.00000000	     -0.00000000	      0.00000000	      0.00000000	     -0.00000000	     -0.00000000	      0.00000000	     -0.00000000	     -0.00000000	     -0.00000000	     37.12833814	     77.78619767	      4.36732058	      0.80111568	      1.78971509	    -27.93659151	    -48.09895892	   -292.72531691	      0.00361531	      0.03740755	     -0.47253205	     -0.07869718	     16.98724265	     14.84410946	      0.04619542	     -0.07946343	     -0.02337428	      0.01159337	     23.37330608	    -49.36115083	     -0.00000000	     -0.00000000	     -0.00000000	     -0.00000000	     -0.02149123	      0.12137586	     -0.02149123	      0.17323302	     -0.02149123	      0.12815847	     -0.02149123	      0.11994040	     -0.02149123	      0.15012759	     -0.02149123	      0.11531177
      0.36455003	   -185.16943171	   -480.13863232	    197.16041357	    215.74769830	      0.00000000	     -0.00000000	     -0.00000000	     -0.00000000	      0.00000000	      0.00000000	     -0.00000000	     -0.00000000	      0.00000000	     -0.00000000	     -0.00000000	     -0.00000000	     37.12983295	     77.79466264	      4.36733597	      0.80080349	      1.78917829	    -27.93467569	    -48.10458400	   -292.73575503	      0.00361603	      0.03740309	     -0.47253356	     -0.07870592	     16.98752785	     14.83949138	      0.04619389	     -0.07946988	     -0.02337406	      0.01159312	     23.37235771	    -49.34492001	     -0.00000000	     -0.00000000	     -0.00000000	     -0.00000000	     -0.02149370	      0.12137395	     -0.02149370	      0.17322974	     -0.02149370	      0.12815958	     -0.02149370	      0.11994494	     -0.02149370	      0.15012739	     -0.02149370	      0.11531261
      0.36464611	   -185.21556313	   -480.13863232	    197.18114584	    215.81778173	      0.00000000	     -0.00000000	     -0.00000000	     -0.00000000	      0.00000000	      0.00000000	     -0.00000000	     -0.00000000	      0.00000000	     -0.00000000	     -0.00000000	     -0.00000000	     37.13730945	     77.83696902	      4.36741283	      0.79924140	      1.78649480	    -27.92510356	    -48.13271237	   -292.78787042	      0.00361962	      0.03738072	     -0.47254112	     -0.07874955	     16.98895251	     14.81640253	      0.04618625	     -0.07950213	     -0.02337294	      0.01159185	     23.36762058	    -49.26380597	     -0.00000000	     -0.00000000	     -0.00000000	     -0.00000000	     -0.02150607	      0.12136436	     -0.02150607	      0.17321334	     -0.02150607	      0.12816511	     -0.02150607	      0.11996768	     -0.02150607	      0.15012368	     -0.02150607	      0.11531683
